<?xml version="1.0" standalone="no"?><!DOCTYPE svg PUBLIC "-//W3C//DTD SVG 1.1//EN" "http://www.w3.org/Graphics/SVG/1.1/DTD/svg11.dtd"><svg height="1024" node-id="1" sillyvg="true" template-height="1024" template-width="1024" version="1.1" viewBox="0 0 1024 1024" width="1024" xmlns="http://www.w3.org/2000/svg" xmlns:xlink="http://www.w3.org/1999/xlink"><defs node-id="41"></defs><path d="M 517.70 387.00 L 513.70 380.60 L 506.30 370.40 L 499.30 363.50 L 493.40 359.40 L 486.70 356.60 L 482.50 355.70 L 478.40 355.30 L 474.30 355.50 L 470.20 356.00 L 462.00 358.30 L 456.00 360.80 L 444.40 367.20 L 417.60 385.00 L 396.50 399.60 L 375.70 414.60 L 355.20 430.00 L 335.00 445.80 L 315.00 462.00 L 315.00 462.50 L 418.70 455.30 L 437.30 453.20 L 451.80 450.20 L 458.90 448.10 L 465.80 445.50 L 472.50 442.30 L 483.70 436.10 L 490.20 433.50 L 495.70 432.60 L 499.20 432.70 L 502.50 433.30 L 505.70 434.40 L 511.90 437.70 L 518.80 443.40 L 522.60 447.10 L 529.40 454.90 L 535.80 463.00 L 541.70 471.60 L 552.50 489.30 L 579.30 540.40 L 586.90 554.00 L 592.30 562.90 L 598.00 571.40 L 604.10 579.60 L 608.90 585.50 L 614.00 591.10 L 619.50 596.50 L 625.30 601.70 L 613.70 573.90 L 601.60 546.50 L 589.00 519.20 L 575.80 492.20 L 562.00 465.50 L 547.80 439.00 L 533.00 412.90 L 517.70 387.00 Z" fill="#f2f2f2" fill-rule="nonzero" node-id="43" stroke="none" target-height="246.40002" target-width="310.3" target-x="315" target-y="355.3"></path><path d="M 779.60 771.80 L 768.30 758.50 L 749.60 733.90 L 731.20 709.10 L 713.30 683.90 L 695.70 658.50 L 678.50 632.70 L 661.60 606.70 L 644.90 579.90 L 628.50 552.90 L 612.60 525.70 L 597.10 498.20 L 582.80 471.80 L 568.80 445.20 L 547.90 403.60 L 528.80 363.40 L 523.00 352.80 L 519.70 347.70 L 513.30 339.80 L 507.20 334.50 L 503.70 332.20 L 500.00 330.50 L 496.00 329.30 L 491.90 328.60 L 488.00 328.70 L 484.20 329.20 L 480.40 330.30 L 476.80 331.60 L 469.70 335.00 L 454.70 343.10 L 439.90 351.60 L 425.20 360.40 L 410.80 369.60 L 396.60 379.20 L 379.20 391.70 L 362.10 404.60 L 345.50 417.90 L 329.30 431.80 L 313.50 446.10 L 298.10 460.90 L 283.10 476.10 L 268.60 491.80 L 254.50 507.80 L 241.00 524.30 L 227.90 541.10 L 215.30 558.40 L 214.00 559.00 L 212.90 558.30 L 212.70 557.70 L 212.90 557.00 L 219.00 548.50 L 238.40 523.20 L 252.10 506.60 L 266.20 490.40 L 280.80 474.60 L 295.80 459.30 L 311.30 444.40 L 327.20 430.10 L 343.50 416.10 L 360.30 402.60 L 377.40 389.70 L 394.90 377.20 L 412.80 365.20 L 437.50 349.90 L 459.60 337.30 L 469.30 332.20 L 474.20 329.80 L 479.20 327.80 L 486.10 326.20 L 489.70 325.90 L 493.40 326.10 L 500.10 327.50 L 503.20 328.80 L 507.10 330.90 L 510.80 333.60 L 514.20 336.70 L 517.40 340.10 L 523.10 347.80 L 526.90 354.00 L 530.30 360.30 L 555.30 412.50 L 566.50 434.70 L 588.70 477.10 L 613.70 522.30 L 628.10 547.10 L 642.90 571.60 L 658.00 596.00 L 673.50 620.20 L 690.80 646.40 L 708.10 671.60 L 725.70 696.40 L 743.70 720.90 L 762.20 745.20 L 781.50 770.00 L 781.80 770.70 L 781.40 771.90 L 780.20 772.20 L 779.60 771.80 Z" fill="#e4e4e4" fill-rule="nonzero" node-id="45" stroke="none" target-height="446.30002" target-width="569.1" target-x="212.7" target-y="325.9"></path><path d="M 326.90 417.80 L 316.80 406.70 L 310.80 400.60 L 304.50 394.80 L 297.90 389.40 L 293.20 386.20 L 283.20 380.60 L 279.40 378.90 L 271.60 376.50 L 263.40 375.30 L 255.00 375.30 L 246.60 376.60 L 240.50 378.30 L 234.50 380.50 L 223.50 385.50 L 200.00 398.40 L 188.90 405.10 L 174.40 414.40 L 160.30 424.10 L 146.40 434.30 L 125.50 451.10 L 106.90 467.60 L 105.50 467.90 L 104.60 467.00 L 104.60 466.40 L 105.00 465.70 L 123.80 449.10 L 136.90 438.40 L 150.30 428.10 L 164.60 417.90 L 179.20 408.10 L 194.10 398.90 L 217.00 385.90 L 229.60 379.70 L 235.20 377.40 L 245.10 374.20 L 253.60 372.80 L 262.20 372.50 L 266.50 372.90 L 272.70 374.10 L 278.70 375.90 L 284.50 378.20 L 290.00 381.00 L 295.00 384.00 L 304.40 391.00 L 310.90 396.80 L 317.10 403.00 L 329.00 415.90 L 329.30 416.60 L 328.80 417.80 L 327.60 418.20 L 326.90 417.80 Z" fill="#e4e4e4" fill-rule="nonzero" node-id="47" stroke="none" target-height="95.399994" target-width="224.69998" target-x="104.6" target-y="372.5"></path><path d="M 642.50 548.70 L 706.70 525.10 L 715.80 522.30 L 719.90 521.50 L 724.00 521.20 L 728.20 521.50 L 732.20 522.50 L 735.70 524.00 L 742.10 527.90 L 745.00 530.40 L 750.50 535.80 L 755.50 541.60 L 791.80 586.00 L 840.10 646.30 L 887.70 707.20 L 917.10 745.40 L 918.40 746.00 L 919.60 745.30 L 919.50 744.00 L 871.80 682.20 L 823.30 620.70 L 756.50 538.40 L 751.00 532.20 L 747.40 528.70 L 743.40 525.50 L 737.70 521.90 L 731.50 519.40 L 728.20 518.70 L 724.80 518.40 L 720.20 518.70 L 715.70 519.60 L 707.00 522.30 L 641.70 546.10 L 641.10 546.60 L 640.90 547.90 L 641.70 548.80 L 642.50 548.70 Z" fill="#e4e4e4" fill-rule="nonzero" node-id="49" stroke="none" target-height="227.59998" target-width="278.69995" target-x="640.9" target-y="518.4"></path><path d="M 278.40 396.50 L 273.60 394.30 L 268.60 392.60 L 263.50 391.40 L 258.30 390.70 L 253.10 390.40 L 247.80 390.50 L 242.60 391.10 L 237.40 392.20 L 232.40 393.70 L 227.50 395.60 L 222.80 398.00 L 218.40 400.80 L 238.10 404.50 L 257.70 408.50 L 277.20 413.10 L 296.50 418.10 L 315.80 423.50 L 306.30 417.00 L 288.20 402.60 L 283.40 399.40 L 278.40 396.50 Z" fill="#f2f2f2" fill-rule="nonzero" node-id="51" stroke="none" target-height="33.100006" target-width="97.399994" target-x="218.4" target-y="390.4"></path><path d="M 218.20 400.80 L 214.60 403.70 L 218.20 400.80 Z" fill="#f2f2f2" fill-rule="nonzero" node-id="53" stroke="none" target-height="2.9000244" target-width="3.5999908" target-x="214.6" target-y="400.8"></path><path d="M 743.50 548.80 L 737.70 542.40 L 733.10 539.10 L 730.50 538.00 L 725.40 538.20 L 733.30 551.70 L 741.60 565.00 L 750.20 578.10 L 759.10 590.90 L 768.40 603.40 L 778.00 615.70 L 788.00 627.70 L 798.30 639.50 L 808.80 650.90 L 819.80 662.10 L 831.00 673.00 L 842.50 683.60 L 854.20 693.80 L 866.30 703.80 L 878.70 713.40 L 743.50 548.80 Z" fill="#f2f2f2" fill-rule="nonzero" node-id="55" stroke="none" target-height="175.40002" target-width="153.29999" target-x="725.4" target-y="538"></path><path d="M 428.10 512.40 L 429.50 516.60 L 431.40 520.50 L 433.70 524.20 L 436.40 527.60 L 439.50 530.70 L 447.30 536.40 L 449.50 538.90 L 450.10 540.40 L 450.30 542.00 L 449.90 545.10 L 449.20 546.50 L 445.30 551.50 L 445.20 552.00 L 440.00 548.70 L 435.30 544.90 L 432.40 542.00 L 429.80 538.80 L 427.70 535.40 L 425.70 530.50 L 425.00 527.80 L 424.70 522.40 L 425.70 517.20 L 428.10 512.40" fill="#f2f2f2" fill-rule="nonzero" node-id="57" stroke="none" target-height="39.599976" target-width="25.599976" target-x="424.7" target-y="512.4"></path><path d="M 661.10 715.40 L 662.50 719.60 L 664.40 723.50 L 666.70 727.20 L 669.40 730.60 L 672.50 733.70 L 680.30 739.40 L 682.50 741.90 L 683.10 743.40 L 683.30 745.00 L 682.90 748.10 L 682.20 749.50 L 678.30 754.50 L 678.20 755.00 L 673.00 751.70 L 668.30 747.90 L 665.40 745.00 L 662.80 741.80 L 660.70 738.40 L 659.10 734.70 L 658.00 730.70 L 657.70 725.30 L 658.70 720.10 L 661.10 715.40" fill="#f2f2f2" fill-rule="nonzero" node-id="59" stroke="none" target-height="39.599976" target-width="25.599976" target-x="657.7" target-y="715.4"></path><path d="M 196.10 701.40 L 197.50 705.60 L 199.40 709.50 L 201.70 713.20 L 204.40 716.60 L 207.50 719.70 L 215.30 725.40 L 217.50 727.90 L 218.10 729.40 L 218.30 731.00 L 217.90 734.10 L 217.20 735.50 L 213.30 740.50 L 213.20 741.00 L 208.00 737.70 L 203.30 733.90 L 200.40 731.00 L 197.80 727.80 L 195.70 724.40 L 194.10 720.70 L 193.00 716.70 L 192.70 711.30 L 193.70 706.10 L 196.10 701.40" fill="#f2f2f2" fill-rule="nonzero" node-id="61" stroke="none" target-height="39.599976" target-width="25.600006" target-x="192.7" target-y="701.4"></path><path d="M 782.20 277.40 L 781.90 282.70 L 781.10 287.70 L 779.90 292.60 L 778.20 297.30 L 776.00 301.70 L 773.50 305.90 L 770.60 309.80 L 767.30 313.50 L 763.60 316.80 L 759.70 319.70 L 755.50 322.20 L 751.10 324.40 L 746.40 326.10 L 741.50 327.30 L 736.50 328.10 L 731.20 328.40 L 725.90 328.10 L 720.90 327.30 L 716.00 326.10 L 711.30 324.40 L 706.90 322.20 L 702.70 319.70 L 698.80 316.80 L 695.10 313.50 L 691.80 309.80 L 688.90 305.90 L 686.40 301.70 L 684.20 297.30 L 682.50 292.60 L 681.30 287.70 L 680.50 282.70 L 680.20 277.40 L 680.50 272.10 L 681.30 267.10 L 682.50 262.20 L 684.20 257.50 L 686.40 253.10 L 688.90 248.90 L 691.80 245.00 L 695.10 241.30 L 698.80 238.00 L 702.70 235.10 L 706.90 232.60 L 711.30 230.40 L 716.00 228.70 L 720.90 227.50 L 725.90 226.70 L 731.20 226.40 L 736.50 226.70 L 741.50 227.50 L 746.40 228.70 L 751.10 230.40 L 755.50 232.60 L 759.70 235.10 L 763.60 238.00 L 767.30 241.30 L 770.60 245.00 L 773.50 248.90 L 776.00 253.10 L 778.20 257.50 L 779.90 262.20 L 781.10 267.10 L 781.90 272.10 L 782.20 277.40 Z" fill="#c5a47a" fill-rule="nonzero" node-id="63" stroke="none" target-height="102" target-width="102" target-x="680.2" target-y="226.4"></path><path d="M 823.20 238.30 L 813.80 237.80 L 804.40 238.80 L 795.30 241.30 L 786.70 245.10 L 782.70 247.50 L 778.90 250.20 L 775.50 253.20 L 772.40 256.40 L 769.60 260.00 L 767.30 263.90 L 765.40 268.00 L 763.90 272.40 L 762.60 269.70 L 759.30 265.10 L 757.30 263.20 L 754.20 261.10 L 750.90 259.60 L 747.30 258.70 L 741.80 258.50 L 736.10 259.80 L 733.00 261.30 L 730.20 263.20 L 727.70 265.50 L 725.60 268.20 L 724.00 271.20 L 722.80 274.50 L 725.60 276.50 L 738.90 279.10 L 752.30 281.30 L 765.60 282.90 L 779.10 284.10 L 792.50 284.70 L 806.00 284.90 L 819.40 284.60 L 832.90 283.80 L 846.30 282.50 L 859.70 280.80 L 873.00 278.50 L 886.30 275.80 L 874.30 264.20 L 867.80 258.80 L 861.00 253.80 L 854.00 249.40 L 846.70 245.50 L 841.10 243.00 L 835.30 241.00 L 829.30 239.40 L 823.20 238.30 Z" fill="#f0f0f0" fill-rule="nonzero" node-id="65" stroke="none" target-height="47.09999" target-width="163.5" target-x="722.8" target-y="237.8"></path><path d="M 717.20 306.30 L 707.80 305.80 L 698.40 306.80 L 689.30 309.30 L 680.70 313.10 L 676.70 315.50 L 672.90 318.20 L 669.50 321.20 L 666.40 324.40 L 663.60 328.00 L 661.30 331.90 L 659.40 336.00 L 657.90 340.40 L 656.60 337.70 L 653.30 333.10 L 651.30 331.20 L 648.20 329.10 L 644.90 327.60 L 641.30 326.70 L 635.80 326.50 L 630.10 327.80 L 627.00 329.30 L 624.20 331.20 L 621.70 333.50 L 619.60 336.20 L 618.00 339.20 L 616.80 342.50 L 619.60 344.50 L 632.90 347.10 L 646.30 349.30 L 659.60 350.90 L 673.10 352.10 L 686.50 352.70 L 700.00 352.90 L 713.40 352.60 L 726.90 351.80 L 740.30 350.50 L 753.70 348.80 L 767.00 346.50 L 780.30 343.80 L 768.30 332.20 L 761.80 326.80 L 755.00 321.80 L 748.00 317.40 L 740.70 313.50 L 735.10 311.00 L 729.30 309.00 L 723.30 307.40 L 717.20 306.30 Z" fill="#f0f0f0" fill-rule="nonzero" node-id="67" stroke="none" target-height="47.100006" target-width="163.5" target-x="616.8" target-y="305.8"></path><path d="M 932.90 319.20 L 904.10 310.50 L 876.00 302.60 L 848.40 295.40 L 821.40 288.90 L 793.90 282.90 L 767.00 277.60 L 740.70 272.90 L 714.90 268.80 L 688.80 265.10 L 663.30 262.00 L 638.40 259.40 L 614.10 257.40 L 589.50 255.70 L 542.40 253.70 L 497.10 253.20 L 475.10 253.50 L 433.30 255.00 L 405.70 256.70 L 379.60 258.80 L 355.00 261.20 L 330.50 264.10 L 307.50 267.10 L 271.00 273.00 L 240.70 278.50 L 200.80 287.20 L 172.40 294.10 L 134.60 304.60 L 108.90 313.00 L 91.40 319.30 L 90.60 319.30 L 90.10 318.70 L 90.10 317.90 L 90.70 317.40 L 108.20 311.10 L 134.10 302.70 L 158.00 295.90 L 183.50 289.20 L 225.30 279.60 L 255.40 273.70 L 285.80 268.40 L 330.10 262.10 L 354.70 259.20 L 379.30 256.70 L 405.40 254.70 L 433.00 253.00 L 474.90 251.50 L 496.90 251.20 L 542.30 251.60 L 589.50 253.70 L 614.10 255.30 L 638.40 257.40 L 663.40 260.00 L 688.90 263.10 L 715.10 266.80 L 740.90 270.90 L 767.30 275.60 L 794.20 281.00 L 821.70 287.00 L 848.80 293.40 L 876.40 300.60 L 904.50 308.60 L 933.10 317.30 L 933.70 317.80 L 933.80 318.60 L 933.50 319.00 L 932.90 319.20 Z" fill="#cccccc" fill-rule="nonzero" node-id="69" stroke="none" target-height="68.09999" target-width="843.7" target-x="90.1" target-y="251.2"></path><path d="M 344.90 646.30 L 344.20 644.90 L 343.20 643.60 L 340.20 641.90 L 337.80 641.50 L 334.70 642.10 L 332.60 643.60 L 328.30 648.50 L 324.40 652.40 L 317.80 658.20 L 306.80 665.30 L 297.20 670.00 L 289.60 672.80 L 283.00 674.60 L 276.20 675.90 L 269.30 676.60 L 262.30 676.80 L 251.00 675.90 L 240.00 673.60 L 234.00 671.80 L 228.10 669.60 L 220.90 666.00 L 214.00 662.00 L 204.40 655.40 L 215.40 626.80 L 221.00 610.70 L 231.50 577.80 L 239.40 550.20 L 239.60 548.30 L 239.40 546.30 L 238.60 544.50 L 237.50 542.90 L 236.00 541.70 L 234.20 541.00 L 232.20 540.80 L 230.30 541.00 L 228.50 541.80 L 227.00 542.90 L 225.80 544.40 L 225.00 546.20 L 220.50 562.80 L 210.70 594.80 L 199.10 628.20 L 191.40 648.40 L 187.00 647.10 L 182.10 646.20 L 178.60 646.00 L 171.60 647.00 L 168.40 648.10 L 165.30 649.70 L 162.50 651.70 L 160.00 654.20 L 157.90 657.00 L 156.50 659.60 L 155.40 662.40 L 154.80 665.30 L 154.60 668.30 L 154.70 671.20 L 155.30 674.00 L 156.40 676.80 L 157.90 679.30 L 159.90 681.60 L 162.40 683.60 L 165.00 685.10 L 167.80 686.10 L 173.60 686.90 L 176.60 686.70 L 182.50 685.20 L 185.30 684.00 L 188.40 682.10 L 191.20 679.80 L 193.70 677.10 L 195.80 674.10 L 198.50 669.40 L 208.60 676.20 L 216.00 680.40 L 227.10 685.20 L 238.70 688.70 L 244.60 689.90 L 255.40 691.40 L 262.60 691.70 L 269.80 691.50 L 276.90 690.80 L 284.00 689.60 L 291.00 687.90 L 297.80 685.70 L 304.50 683.10 L 311.00 680.00 L 318.60 675.60 L 325.20 671.10 L 330.00 667.40 L 334.50 663.40 L 341.00 656.60 L 344.40 652.40 L 345.10 650.70 L 345.40 648.70 L 344.90 646.30 Z M 179.30 670.10 L 179.90 669.60 Z M 182.50 666.90 L 179.60 669.90 L 177.50 671.10 L 174.80 671.90 L 172.70 671.90 L 170.50 671.10 L 170.00 670.60 L 169.50 669.20 L 169.50 667.80 L 170.00 665.90 L 170.90 664.20 L 172.30 662.90 L 174.10 661.90 L 177.00 661.10 L 181.40 661.10 L 183.50 661.50 L 185.50 662.10 L 182.50 666.90 Z M 171.40 663.60 L 171.10 664.00 Z" fill="#3f3d56" fill-rule="nonzero" node-id="71" stroke="none" target-height="150.90002" target-width="190.79999" target-x="154.6" target-y="540.8"></path><path d="M 314.90 544.10 L 307.90 789.00 L 307.60 791.00 L 306.80 792.70 L 305.60 794.20 L 304.10 795.40 L 302.40 796.20 L 300.40 796.50 L 298.40 796.20 L 296.60 795.50 L 295.10 794.30 L 293.90 792.80 L 293.20 791.00 L 292.90 789.00 L 299.90 543.80 L 300.20 541.80 L 301.00 540.10 L 302.10 538.60 L 303.70 537.40 L 305.40 536.60 L 307.40 536.30 L 309.40 536.80 L 311.10 537.60 L 312.70 538.80 L 313.80 540.30 L 314.60 542.10 L 314.90 544.10 Z" fill="#3f3d56" fill-rule="nonzero" node-id="73" stroke="none" target-height="260.2" target-width="22" target-x="292.9" target-y="536.3"></path><path d="M 726.30 546.20 L 720.10 568.50 L 713.30 590.50 L 706.00 612.40 L 698.10 634.10 L 687.90 659.70 L 683.90 666.60 L 680.20 670.20 L 681.10 669.50 L 677.60 671.40 L 679.40 670.60 L 675.20 671.80 L 677.20 671.50 L 672.90 671.50 L 674.90 671.80 L 671.50 670.90 L 673.30 671.70 L 671.10 670.40 L 672.10 671.20 L 670.90 670.00 L 671.30 670.70 L 670.40 668.90 L 671.20 670.70 L 670.50 668.00 L 670.80 670.00 L 670.80 666.60 L 670.50 668.60 L 671.50 664.90 L 670.70 666.70 L 672.60 663.30 L 671.80 664.20 L 673.50 662.40 L 675.80 661.30 L 674.00 662.10 L 679.00 660.80 L 677.00 661.10 L 683.50 661.20 L 681.50 660.90 L 685.50 661.80 L 689.40 663.10 L 687.60 662.30 L 691.50 664.20 L 695.30 666.40 L 709.60 676.10 L 717.00 680.30 L 722.50 682.80 L 733.90 687.00 L 745.60 689.80 L 751.60 690.80 L 758.20 691.40 L 764.80 691.60 L 771.30 691.30 L 777.70 690.70 L 784.10 689.70 L 796.50 686.40 L 802.60 684.30 L 808.50 681.70 L 814.20 678.80 L 819.80 675.50 L 825.10 671.90 L 830.30 667.90 L 835.10 663.60 L 839.80 659.00 L 845.40 652.40 L 846.10 650.70 L 846.40 648.70 L 846.30 647.20 L 845.10 644.50 L 844.20 643.40 L 842.60 642.30 L 840.80 641.60 L 838.90 641.30 L 836.90 641.40 L 834.60 642.50 L 825.50 652.10 L 817.90 658.60 L 811.40 663.00 L 804.70 666.80 L 797.60 670.20 L 799.40 669.40 L 787.50 673.50 L 777.20 675.70 L 770.80 676.30 L 764.40 676.50 L 757.90 676.30 L 753.40 676.00 L 747.00 674.90 L 740.80 673.40 L 734.60 671.50 L 728.50 669.20 L 730.30 670.00 L 722.70 666.30 L 715.50 662.10 L 703.20 653.70 L 697.50 650.40 L 692.90 648.40 L 688.10 646.90 L 683.10 646.00 L 676.80 646.00 L 670.80 647.30 L 665.40 650.10 L 662.90 651.90 L 660.80 654.10 L 658.90 656.70 L 657.50 659.30 L 656.40 662.10 L 655.80 665.00 L 655.60 668.00 L 655.70 670.90 L 656.30 673.70 L 657.40 676.50 L 658.90 679.00 L 660.90 681.30 L 663.40 683.30 L 666.00 684.80 L 668.80 685.80 L 671.70 686.40 L 677.60 686.40 L 683.50 684.90 L 688.80 682.20 L 693.10 678.50 L 695.90 675.10 L 700.30 667.70 L 709.20 646.20 L 715.90 628.40 L 722.20 610.50 L 728.10 592.70 L 733.60 574.70 L 740.50 550.00 L 740.70 548.10 L 740.50 546.10 L 739.70 544.30 L 738.60 542.70 L 737.10 541.50 L 735.30 540.80 L 733.40 540.70 L 731.50 541.00 L 729.80 541.70 L 728.30 542.90 L 727.10 544.40 L 726.30 546.20 Z" fill="#3f3d56" fill-rule="nonzero" node-id="75" stroke="none" target-height="150.89996" target-width="190.80005" target-x="655.6" target-y="540.7"></path><path d="M 801.10 544.10 L 794.20 789.10 L 794.50 791.10 L 795.20 792.90 L 796.40 794.40 L 797.90 795.60 L 799.70 796.30 L 801.70 796.60 L 803.70 796.30 L 805.40 795.50 L 806.90 794.30 L 808.10 792.80 L 808.90 791.10 L 809.20 789.10 L 816.10 544.10 L 815.80 542.10 L 815.10 540.30 L 813.90 538.80 L 812.40 537.60 L 810.60 536.90 L 808.60 536.60 L 806.60 536.90 L 804.90 537.70 L 803.30 538.90 L 802.20 540.40 L 801.40 542.10 L 801.10 544.10 Z" fill="#3f3d56" fill-rule="nonzero" node-id="77" stroke="none" target-height="260" target-width="21.899963" target-x="794.2" target-y="536.6"></path><g node-id="118"><path d="M 541.50 762.40 L 543.80 762.40 L 543.80 656.40 L 598.10 656.40 L 598.10 654.00 L 543.80 654.00 L 543.80 609.30 L 585.80 609.30 L 583.90 607.00 L 543.80 607.00 L 543.80 577.40 L 541.50 576.50 L 541.50 607.00 L 495.80 607.00 L 495.80 569.10 L 493.50 569.30 L 493.50 607.00 L 457.10 607.00 L 457.10 578.70 L 454.80 579.80 L 454.80 607.00 L 424.20 607.00 L 424.20 609.30 L 454.80 609.30 L 454.80 654.00 L 424.20 654.00 L 424.20 656.30 L 454.80 656.30 L 454.80 762.30 L 457.10 762.30 L 457.10 656.30 L 460.90 656.50 L 467.90 657.90 L 471.30 659.20 L 475.50 661.30 L 479.30 663.90 L 482.80 667.00 L 485.90 670.50 L 488.50 674.30 L 490.60 678.50 L 491.90 681.90 L 493.30 688.90 L 493.50 692.70 L 493.50 762.30 L 495.80 762.30 L 495.80 656.30 L 541.50 656.30 L 541.50 762.40 Z M 457.10 654.00 L 457.10 609.30 L 493.50 609.30 L 493.50 654.00 L 457.10 654.00 Z M 495.90 654.00 L 495.90 609.30 L 501.40 609.50 L 505.90 610.20 L 510.10 611.30 L 514.20 612.80 L 518.10 614.70 L 521.80 616.90 L 525.20 619.50 L 528.40 622.40 L 531.30 625.60 L 533.90 629.00 L 536.10 632.70 L 538.00 636.60 L 539.50 640.70 L 540.60 644.90 L 541.30 649.40 L 541.50 654.00 L 495.90 654.00 Z" fill="#000000" fill-opacity="0.2" fill-rule="nonzero" group-id="1" node-id="81" stroke="none" target-height="193.30005" target-width="173.89996" target-x="424.2" target-y="569.1"></path></g><path d="M 527.30 730.60 L 524.40 740.20 L 520.00 749.10 L 514.20 757.20 L 510.90 760.80 L 505.10 766.20 L 494.70 767.10 L 493.70 758.90 L 491.70 755.10 L 490.10 751.20 L 489.00 747.20 L 488.30 743.00 L 488.10 738.90 L 488.40 734.70 L 489.20 730.60 L 490.40 726.50 L 493.60 719.60 L 499.00 711.50 L 508.70 698.20 L 511.40 693.70 L 513.50 689.10 L 514.50 685.90 L 515.50 679.10 L 518.50 683.30 L 521.10 687.80 L 523.40 692.40 L 519.80 694.70 L 518.30 696.20 L 517.80 697.00 L 517.80 697.80 L 518.40 698.30 L 526.00 699.10 L 527.50 705.20 L 528.50 711.30 L 528.70 717.80 L 528.30 724.20 L 527.30 730.60 Z" fill="#3f3d56" fill-rule="nonzero" node-id="84" stroke="none" target-height="88" target-width="40.600006" target-x="488.1" target-y="679.1"></path><path d="M 560.50 704.40 L 557.70 706.70 L 555.30 709.30 L 553.30 712.10 L 550.70 716.70 L 548.50 721.70 L 545.90 722.80 L 543.50 724.40 L 540.80 727.10 L 540.80 727.90 L 541.40 728.40 L 546.00 728.90 L 541.80 741.00 L 538.30 748.60 L 536.10 752.10 L 533.50 755.30 L 530.60 758.20 L 527.50 760.80 L 524.10 763.00 L 520.10 765.00 L 495.00 767.10 L 495.40 759.90 L 496.20 754.50 L 497.40 749.30 L 499.20 744.10 L 501.30 739.20 L 503.80 734.40 L 506.80 729.90 L 510.20 725.50 L 515.40 720.30 L 519.40 716.90 L 523.80 713.90 L 528.40 711.30 L 533.40 709.00 L 538.60 707.10 L 543.90 705.70 L 549.40 704.80 L 554.90 704.40 L 560.50 704.40 Z" fill="#c5a47a" fill-rule="nonzero" node-id="86" stroke="none" target-height="62.69995" target-width="65.5" target-x="495" target-y="704.4"></path><path d="M 501.20 761.50 L 499.40 766.60 L 489.60 767.50 L 485.20 761.90 L 480.20 753.40 L 476.70 744.30 L 474.70 735.00 L 474.20 730.30 L 474.20 723.90 L 474.80 717.70 L 476.00 711.40 L 477.30 706.90 L 481.00 698.10 L 483.40 693.80 L 489.20 686.00 L 496.40 678.90 L 496.00 682.30 L 496.30 689.10 L 497.50 694.00 L 499.20 699.00 L 496.50 700.30 L 494.80 701.60 L 493.30 703.10 L 492.80 703.90 L 492.80 704.70 L 493.40 705.20 L 502.40 706.20 L 508.70 720.60 L 510.30 725.40 L 511.30 730.30 L 511.60 734.70 L 511.40 738.90 L 510.80 743.00 L 509.70 747.10 L 508.20 751.00 L 506.30 754.70 L 504.00 758.20 L 501.20 761.50 Z" fill="#c5a47a" fill-rule="nonzero" node-id="88" stroke="none" target-height="88.599976" target-width="37.399994" target-x="474.2" target-y="678.9"></path><path d="M 601.80 616.50 L 598.30 610.30 L 594.50 604.40 L 590.30 598.80 L 585.70 593.50 L 580.70 588.40 L 575.50 583.70 L 570.00 579.30 L 564.20 575.20 L 558.20 571.50 L 552.00 568.20 L 545.60 565.30 L 539.10 562.70 L 532.40 560.60 L 525.60 558.90 L 518.60 557.70 L 511.60 556.80 L 504.20 556.40 L 503.10 556.60 L 490.20 560.10 L 477.80 564.00 L 464.50 568.80 L 452.10 574.10 L 446.60 576.90 L 442.60 579.40 L 437.20 583.40 L 432.10 587.70 L 422.60 597.10 L 418.30 602.20 L 410.70 613.10 L 407.30 618.90 L 404.30 624.90 L 401.70 631.10 L 399.60 637.40 L 397.80 643.90 L 396.50 650.50 L 395.60 657.10 L 395.20 663.80 L 395.20 670.50 L 395.70 677.30 L 396.50 684.00 L 397.80 690.60 L 399.50 697.10 L 403.90 709.80 L 406.70 716.00 L 413.40 727.80 L 417.20 733.30 L 421.30 738.60 L 425.70 743.60 L 430.50 748.30 L 435.50 752.80 L 440.70 756.90 L 450.80 764.00 L 455.50 768.20 L 469.70 782.40 L 477.90 789.70 L 484.60 794.10 L 488.10 795.80 L 491.60 796.90 L 495.20 797.40 L 498.80 797.20 L 502.50 796.50 L 506.40 795.20 L 510.10 793.50 L 517.90 789.00 L 540.50 772.60 L 545.90 769.00 L 557.00 763.40 L 562.90 760.00 L 568.60 756.30 L 574.00 752.10 L 579.10 747.70 L 583.90 742.90 L 588.40 737.80 L 592.60 732.40 L 596.30 726.80 L 599.70 721.10 L 602.70 715.20 L 605.40 709.10 L 609.50 696.50 L 612.20 683.50 L 613.40 669.90 L 613.10 656.20 L 612.30 649.40 L 611.10 642.70 L 609.50 636.10 L 607.40 629.50 L 604.80 622.90 L 601.80 616.50 L 600.60 614.90 L 599.10 613.80 L 597.20 613.10 L 595.20 612.80 L 593.30 613.00 L 591.50 613.80 L 589.90 615.10 L 588.80 616.60 L 588.10 618.40 L 587.80 620.30 L 588.10 622.20 L 591.70 630.40 L 593.20 634.90 L 595.20 641.20 L 596.70 647.60 L 597.80 654.10 L 598.20 659.30 L 598.40 666.40 L 598.10 673.60 L 597.70 678.80 L 596.50 685.90 L 594.80 692.90 L 592.70 699.70 L 590.90 704.70 L 587.80 711.40 L 582.20 720.90 L 576.60 728.50 L 571.70 733.90 L 566.40 738.90 L 562.00 742.50 L 551.20 749.40 L 541.20 754.30 L 529.50 758.20 L 517.40 760.80 L 510.20 761.50 L 503.10 761.80 L 496.00 761.60 L 488.80 760.90 L 478.00 758.60 L 471.80 756.70 L 465.70 754.40 L 460.60 752.00 L 454.10 748.20 L 447.00 743.40 L 443.30 740.30 L 437.80 735.10 L 432.80 729.60 L 426.80 721.70 L 421.90 713.70 L 419.30 708.70 L 417.00 703.50 L 415.30 698.80 L 413.20 692.10 L 411.70 685.40 L 410.50 678.50 L 410.20 674.10 L 409.90 667.70 L 410.20 661.30 L 410.50 656.90 L 411.50 650.80 L 413.00 644.70 L 414.90 638.70 L 416.30 634.70 L 419.60 627.70 L 423.50 620.80 L 427.90 614.30 L 431.70 609.50 L 437.00 603.80 L 442.60 598.50 L 447.00 594.90 L 453.90 590.10 L 458.90 587.10 L 469.30 582.00 L 467.50 582.80 L 473.40 580.90 L 492.30 576.20 L 502.30 574.20 L 510.70 572.90 L 515.90 572.70 L 513.90 572.40 L 520.80 573.60 L 527.50 575.20 L 538.80 579.00 L 545.20 582.00 L 551.40 585.30 L 560.10 591.00 L 567.10 596.80 L 572.20 601.60 L 576.80 606.60 L 583.30 615.30 L 588.60 624.40 L 589.80 626.00 L 591.30 627.10 L 593.20 627.80 L 595.20 628.10 L 597.10 627.90 L 598.90 627.10 L 600.60 625.60 L 601.80 624.00 L 602.50 622.20 L 602.80 620.30 L 602.50 618.40 L 601.80 616.50 Z" fill="#3f3d56" fill-rule="nonzero" node-id="90" stroke="none" target-height="241" target-width="218.20001" target-x="395.2" target-y="556.4"></path><path d="M 514.40 738.90 L 512.90 738.70 L 511.70 737.90 L 510.80 736.80 L 510.50 734.50 L 512.00 731.40 L 511.10 730.10 L 510.10 729.50 L 508.80 729.50 L 505.70 730.50 L 500.80 733.70 L 497.60 736.50 L 491.80 742.60 L 489.30 745.90 L 485.90 751.70 L 485.30 753.80 L 485.10 757.20 L 485.80 764.10 L 482.50 756.10 L 479.80 748.00 L 477.60 739.70 L 476.10 731.30 L 475.20 722.70 L 474.80 714.10 L 475.50 701.10 L 477.20 690.60 L 478.90 683.50 L 480.90 676.70 L 483.40 669.90 L 486.20 663.30 L 489.50 656.90 L 493.10 650.70 L 497.00 644.80 L 501.40 639.00 L 506.30 638.90 L 508.60 638.30 L 510.50 637.10 L 511.60 636.10 L 513.50 632.90 L 514.60 628.30 L 515.20 623.30 L 517.10 618.20 L 514.40 618.40 L 512.90 618.20 L 511.70 617.40 L 510.90 616.30 L 510.50 614.80 L 510.70 613.50 L 511.30 612.30 L 515.10 607.70 L 513.50 605.80 L 511.50 604.30 L 509.80 603.50 L 506.10 602.90 L 503.30 603.30 L 500.60 604.30 L 498.10 605.90 L 496.10 607.90 L 494.50 610.30 L 493.40 612.90 L 492.80 615.70 L 492.60 621.40 L 493.10 624.30 L 494.60 629.00 L 496.60 633.50 L 499.10 637.70 L 493.60 645.20 L 489.30 651.90 L 485.50 659.00 L 485.50 656.30 L 484.70 652.10 L 481.60 642.30 L 475.00 626.60 L 472.90 622.30 L 469.30 616.30 L 467.70 614.70 L 466.00 613.50 L 464.10 612.70 L 460.10 612.30 L 456.30 613.40 L 454.70 614.40 L 453.20 615.70 L 452.00 617.30 L 451.20 619.20 L 450.70 621.70 L 453.90 624.00 L 454.60 625.00 L 455.10 627.60 L 454.80 628.90 L 453.50 630.90 L 451.70 632.00 L 450.60 632.30 L 449.50 634.40 L 448.90 636.70 L 448.80 639.30 L 449.70 644.80 L 452.80 652.30 L 455.50 656.70 L 458.50 661.00 L 461.80 664.90 L 465.30 668.50 L 468.60 671.20 L 471.00 672.80 L 474.80 674.50 L 476.60 674.70 L 478.10 674.30 L 479.30 673.50 L 476.80 681.20 L 474.90 689.10 L 473.50 697.10 L 472.30 711.60 L 472.70 724.40 L 472.20 721.90 L 469.80 716.80 L 467.10 713.00 L 463.60 709.10 L 459.70 705.40 L 455.50 702.00 L 446.90 696.10 L 442.60 693.80 L 436.60 691.60 L 433.20 691.40 L 428.50 692.20 L 426.50 692.80 L 425.10 693.70 L 424.50 694.40 L 424.20 695.50 L 424.20 697.30 L 430.20 700.50 L 431.30 701.50 L 432.40 703.80 L 432.20 706.40 L 431.60 707.60 L 430.10 709.10 L 427.80 709.80 L 427.40 712.30 L 427.60 715.00 L 428.50 717.90 L 429.80 720.60 L 433.80 726.30 L 439.30 731.60 L 446.00 736.20 L 453.30 739.80 L 460.90 742.10 L 464.70 742.60 L 468.40 742.60 L 472.00 742.20 L 475.30 741.20 L 478.90 753.70 L 483.70 765.70 L 513.70 765.70 L 514.00 764.70 L 509.80 764.70 L 505.70 764.20 L 515.90 751.60 L 515.80 747.30 L 515.30 743.10 L 514.40 738.90 Z M 473.40 731.20 L 473.10 730.60 L 473.10 728.90 L 473.40 731.20 Z" fill="#3f3d56" fill-rule="nonzero" node-id="92" stroke="none" target-height="162.79999" target-width="92.89996" target-x="424.2" target-y="602.9"></path><path d="M 188.20 665.40 L 187.50 669.20 L 185.60 672.50 L 182.80 674.90 L 181.00 675.70 L 177.20 676.40 L 173.40 675.70 L 170.10 673.80 L 167.70 671.00 L 166.40 667.40 L 166.40 663.40 L 166.90 661.60 L 168.80 658.30 L 171.60 655.90 L 173.40 655.10 L 177.20 654.40 L 181.00 655.10 L 184.30 657.00 L 186.70 659.80 L 187.50 661.60 L 188.20 665.40 Z" fill="#3f3d56" fill-rule="nonzero" node-id="94" stroke="none" target-height="22" target-width="21.800003" target-x="166.4" target-y="654.4"></path><path d="M 320.20 785.40 L 319.50 789.20 L 318.70 791.00 L 316.30 793.80 L 313.00 795.70 L 309.20 796.40 L 305.40 795.70 L 302.10 793.80 L 299.70 791.00 L 298.40 787.40 L 298.40 783.40 L 298.90 781.60 L 300.80 778.30 L 303.60 775.90 L 305.40 775.10 L 309.20 774.40 L 313.00 775.10 L 314.80 775.90 L 317.60 778.30 L 319.50 781.60 L 320.20 785.40 Z" fill="#3f3d56" fill-rule="nonzero" node-id="96" stroke="none" target-height="22" target-width="21.800018" target-x="298.4" target-y="774.4"></path><path d="M 821.20 785.40 L 820.50 789.20 L 819.70 791.00 L 817.30 793.80 L 814.00 795.70 L 810.20 796.40 L 806.40 795.70 L 803.10 793.80 L 800.70 791.00 L 799.40 787.40 L 799.40 783.40 L 799.90 781.60 L 801.80 778.30 L 804.60 775.90 L 806.40 775.10 L 810.20 774.40 L 814.00 775.10 L 817.30 777.00 L 819.70 779.80 L 820.50 781.60 L 821.20 785.40 Z" fill="#3f3d56" fill-rule="nonzero" node-id="98" stroke="none" target-height="22" target-width="21.799988" target-x="799.4" target-y="774.4"></path><path d="M 848.20 645.40 L 847.50 649.20 L 846.70 651.00 L 844.30 653.80 L 841.00 655.70 L 837.20 656.40 L 833.40 655.70 L 830.10 653.80 L 827.70 651.00 L 826.90 649.20 L 826.20 645.40 L 826.90 641.60 L 827.70 639.80 L 830.10 637.00 L 833.40 635.10 L 837.20 634.40 L 841.00 635.10 L 844.30 637.00 L 846.70 639.80 L 847.50 641.60 L 848.20 645.40 Z" fill="#3f3d56" fill-rule="nonzero" node-id="100" stroke="none" target-height="22" target-width="22" target-x="826.2" target-y="634.4"></path><path d="M 816.20 543.40 L 815.50 547.20 L 814.70 549.00 L 812.30 551.80 L 809.00 553.70 L 805.20 554.40 L 801.40 553.70 L 798.10 551.80 L 795.70 549.00 L 794.90 547.20 L 794.20 543.40 L 794.90 539.60 L 796.80 536.30 L 799.60 533.90 L 801.40 533.10 L 805.20 532.40 L 809.00 533.10 L 812.30 535.00 L 814.70 537.80 L 815.50 539.60 L 816.20 543.40 Z" fill="#3f3d56" fill-rule="nonzero" node-id="102" stroke="none" target-height="22" target-width="22" target-x="794.2" target-y="532.4"></path><path d="M 346.20 645.40 L 345.50 649.20 L 344.70 650.90 L 342.30 653.70 L 339.10 655.60 L 335.20 656.30 L 331.40 655.60 L 329.70 654.80 L 326.90 652.40 L 325.00 649.20 L 324.30 645.30 L 325.00 641.50 L 325.80 639.80 L 328.20 637.00 L 331.40 635.10 L 335.30 634.40 L 337.80 634.70 L 340.20 635.50 L 342.20 636.90 L 343.90 638.70 L 345.20 640.80 L 346.00 643.20 L 346.20 645.40 Z" fill="#3f3d56" fill-rule="nonzero" node-id="104" stroke="none" target-height="21.899963" target-width="21.900024" target-x="324.3" target-y="634.4"></path><path d="M 577.20 575.40 L 576.50 579.20 L 574.60 582.50 L 571.80 584.90 L 570.00 585.70 L 566.20 586.40 L 562.40 585.70 L 559.10 583.80 L 556.70 581.00 L 555.40 577.40 L 555.40 573.40 L 555.90 571.60 L 557.80 568.30 L 560.60 565.90 L 562.40 565.10 L 566.20 564.40 L 570.00 565.10 L 573.30 567.00 L 575.70 569.80 L 576.50 571.60 L 577.20 575.40 Z" fill="#3f3d56" fill-rule="nonzero" node-id="106" stroke="none" target-height="22" target-width="21.799988" target-x="555.4" target-y="564.4"></path><path d="M 457.20 575.40 L 456.50 579.20 L 455.70 580.90 L 453.30 583.70 L 450.10 585.60 L 446.20 586.30 L 442.40 585.60 L 440.70 584.80 L 437.90 582.40 L 436.00 579.20 L 435.30 575.30 L 436.00 571.50 L 436.80 569.80 L 439.20 567.00 L 442.40 565.10 L 446.30 564.40 L 448.80 564.70 L 451.20 565.50 L 453.20 566.90 L 454.90 568.70 L 456.20 570.80 L 457.00 573.20 L 457.20 575.40 Z" fill="#3f3d56" fill-rule="nonzero" node-id="108" stroke="none" target-height="21.899963" target-width="21.900024" target-x="435.3" target-y="564.4"></path><path d="M 315.20 543.40 L 314.50 547.20 L 313.70 548.90 L 311.30 551.70 L 308.10 553.60 L 304.20 554.30 L 300.40 553.60 L 298.70 552.80 L 295.90 550.40 L 294.00 547.20 L 293.30 543.30 L 294.00 539.50 L 294.80 537.80 L 297.20 535.00 L 300.40 533.10 L 304.30 532.40 L 306.80 532.70 L 309.20 533.50 L 311.20 534.90 L 312.90 536.70 L 314.20 538.80 L 315.00 541.20 L 315.20 543.40 Z" fill="#3f3d56" fill-rule="nonzero" node-id="110" stroke="none" target-height="21.899963" target-width="21.900024" target-x="293.3" target-y="532.4"></path><path d="M 692.20 669.40 L 691.50 673.20 L 690.70 675.00 L 688.30 677.80 L 685.00 679.70 L 681.20 680.40 L 677.40 679.70 L 674.10 677.80 L 671.70 675.00 L 670.90 673.20 L 670.20 669.40 L 670.90 665.60 L 672.80 662.30 L 675.60 659.90 L 677.40 659.10 L 681.20 658.40 L 685.00 659.10 L 686.80 659.90 L 689.60 662.30 L 691.50 665.60 L 692.20 669.40 Z" fill="#3f3d56" fill-rule="nonzero" node-id="112" stroke="none" target-height="22" target-width="22" target-x="670.2" target-y="658.4"></path><path d="M 524.20 564.40 L 523.90 567.30 L 523.20 570.00 L 522.00 572.50 L 520.40 574.70 L 518.50 576.60 L 516.30 578.20 L 513.80 579.40 L 511.10 580.10 L 508.20 580.40 L 505.30 580.10 L 502.60 579.40 L 500.10 578.20 L 497.90 576.60 L 496.00 574.70 L 494.40 572.50 L 493.20 570.00 L 492.50 567.30 L 492.20 564.40 L 492.50 561.50 L 493.20 558.80 L 494.40 556.30 L 496.00 554.10 L 497.90 552.20 L 500.10 550.60 L 502.60 549.40 L 505.30 548.70 L 508.20 548.40 L 511.10 548.70 L 513.80 549.40 L 516.30 550.60 L 518.50 552.20 L 520.40 554.10 L 522.00 556.30 L 523.20 558.80 L 523.90 561.50 L 524.20 564.40 Z" fill="#3f3d56" fill-rule="nonzero" node-id="114" stroke="none" target-height="32" target-width="32" target-x="492.2" target-y="548.4"></path><path d="M 940.90 797.30 L 83.10 797.60 L 82.00 796.90 L 82.00 795.90 L 82.60 795.30 L 940.90 794.90 L 941.80 795.20 L 942.10 796.10 L 941.70 796.90 L 940.90 797.30 Z" fill="#cacaca" fill-rule="nonzero" node-id="116" stroke="none" target-height="2.6999512" target-width="860.1" target-x="82" target-y="794.9"></path></svg>